HIERARCHY
ROOT Hips
{
    OFFSET 0.000000 0.000000 0.000000
    CHANNELS 6 Xposition Yposition Zposition Zrotation Xrotation Yrotation
    JOINT Spine
    {
        OFFSET -0.000000 0.068826 0.000000
        CHANNELS 3 Zrotation Xrotation Yrotation
        JOINT Spine1
        {
            OFFSET -0.000000 0.191010 0.000000
            CHANNELS 3 Zrotation Xrotation Yrotation
            JOINT Neck
            {
                OFFSET -0.000000 0.207797 0.000000
                CHANNELS 3 Zrotation Xrotation Yrotation
                JOINT Head
                {
                    OFFSET -0.000000 0.091069 0.016787
                    CHANNELS 3 Zrotation Xrotation Yrotation
                    End Site
                    {
                        OFFSET -0.000000 0.167869 0.000000
                    }
                }
            }
            JOINT LeftShoulder
            {
                OFFSET 0.034161 0.168574 -0.000928
                CHANNELS 3 Zrotation Xrotation Yrotation
                JOINT LeftArm
                {
                    OFFSET 0.118845 0.000000 0.000000
                    CHANNELS 3 Zrotation Xrotation Yrotation
                    JOINT LeftForeArm
                    {
                        OFFSET 0.267134 0.000000 0.000000
                        CHANNELS 3 Zrotation Xrotation Yrotation
                        JOINT LeftHand
                        {
                            OFFSET 0.227513 0.000000 0.000000
                            CHANNELS 3 Zrotation Xrotation Yrotation
                            End Site
                            {
                                OFFSET 0.000000 -0.125902 0.000000
                            }
                        }
                    }
                }
            }
            JOINT RightShoulder
            {
                OFFSET -0.032780 0.168574 -0.000928
                CHANNELS 3 Zrotation Xrotation Yrotation
                JOINT RightArm
                {
                    OFFSET -0.118845 0.000000 0.000000
                    CHANNELS 3 Zrotation Xrotation Yrotation
                    JOINT RightForeArm
                    {
                        OFFSET -0.267134 0.000000 0.000000
                        CHANNELS 3 Zrotation Xrotation Yrotation
                        JOINT RightHand
                        {
                            OFFSET -0.227513 0.000000 0.000000
                            CHANNELS 3 Zrotation Xrotation Yrotation
                            End Site
                            {
                                OFFSET -0.000000 -0.125902 0.000000
                            }
                        }
                    }
                }
            }
        }
    }
    JOINT LeftUpLeg
    {
        OFFSET 0.083935 0.000000 0.000000
        CHANNELS 3 Zrotation Xrotation Yrotation
        JOINT LeftLeg
        {
            OFFSET -0.000000 -0.292861 0.000000
            CHANNELS 3 Zrotation Xrotation Yrotation
            JOINT LeftFoot
            {
                OFFSET -0.000000 -0.473303 0.000000
                CHANNELS 3 Zrotation Xrotation Yrotation
                JOINT LeftToeBase
                {
                    OFFSET -0.000000 -0.054557 0.125902
                    CHANNELS 3 Zrotation Xrotation Yrotation
                    End Site
                    {
                        OFFSET -0.000000 0.000000 0.033574
                    }
                }
            }
        }
    }
    JOINT RightUpLeg
    {
        OFFSET -0.083935 0.000000 0.000000
        CHANNELS 3 Zrotation Xrotation Yrotation
        JOINT RightLeg
        {
            OFFSET -0.000000 -0.292861 0.000000
            CHANNELS 3 Zrotation Xrotation Yrotation
            JOINT RightFoot
            {
                OFFSET -0.000000 -0.473303 0.000000
                CHANNELS 3 Zrotation Xrotation Yrotation
                JOINT RightToeBase
                {
                    OFFSET -0.000000 -0.054557 0.125902
                    CHANNELS 3 Zrotation Xrotation Yrotation
                    End Site
                    {
                        OFFSET -0.000000 0.000000 0.033574
                    }
                }
            }
        }
    }
}
MOTION
Frames:    14
Frame Time:    0.010000
-0.008287    0.837237    0.099903    2.224419    1.635217    -94.093330    -1.605079    -6.763108    -1.939620    1.925438    1.215342    -0.635415    -1.795105    -8.347819    -0.198753    -0.560534    0.563755    -0.235396    16.132002    -0.996740    -8.184356    -25.214863    1.156984    -2.090903    -3.508123    5.680009    6.149356    92.192886    -5.515703    -5.761898    -14.248688    -2.391290    -1.968516    23.446678    6.083324    -2.424096    3.042416    0.043392    -0.228357    -92.316933    -4.231880    -0.036354    -1.196236    7.670446    5.383482    1.871366    -1.063947    2.929860    -1.434709    -4.955513    37.486034    0.000000    0.000000    0.000000    4.326266    5.545454    7.657363    1.514183    4.767464    -0.633972    0.993465    -9.497990    -50.737209    0.000000    0.000000    0.000000    
-0.008342    0.837235    0.099881    2.227320    1.635247    -94.102966    -1.589618    -6.734974    -1.952179    1.917844    1.156902    -0.639042    -1.946541    -8.487638    -0.208134    -0.586084    0.644639    -0.247625    16.128922    -1.018376    -8.175055    -25.249472    1.121436    -2.076498    -3.533251    5.700130    6.140763    92.222488    -5.489513    -5.782175    -14.255128    -2.413489    -1.962250    23.485176    6.174026    -2.407589    3.039486    0.063471    -0.243911    -92.429672    -4.164185    -0.017676    -1.195467    7.683908    5.376353    1.866579    -1.080627    2.939775    -1.406507    -4.924501    37.505680    0.000000    0.000000    0.000000    4.323819    5.537744    7.663082    1.519353    4.781654    -0.630667    1.034075    -9.540560    -50.675270    0.000000    0.000000    0.000000    
-0.008389    0.837236    0.099876    2.226635    1.629172    -94.109810    -1.569504    -6.707503    -1.971963    1.888830    1.084861    -0.644712    -2.039871    -8.509360    -0.239811    -0.730426    0.594159    -0.266170    16.113510    -0.983116    -8.167653    -25.246838    1.050084    -2.084657    -3.580171    5.746874    6.146661    92.297890    -5.526309    -5.827249    -14.246517    -2.430697    -1.929725    23.816107    6.665856    -2.300568    2.435730    -0.263749    -0.507906    -91.982109    -4.216324    -0.326160    -1.198279    7.702192    5.363463    1.860047    -1.101247    2.948176    -1.418998    -4.942385    37.510052    0.000000    0.000000    0.000000    4.309230    5.536790    7.678741    1.534356    4.784348    -0.642190    1.009204    -9.510044    -50.708927    0.000000    0.000000    0.000000    
-0.008450    0.837241    0.099850    2.217129    1.631069    -94.117554    -1.551030    -6.682012    -1.987172    1.884019    1.029909    -0.649329    -2.279822    -8.636484    -0.202723    -0.521086    0.724059    -0.266324    16.080664    -0.969988    -8.164480    -25.241837    0.986368    -2.087310    -3.632030    5.792429    6.134729    92.281883    -5.514360    -5.876205    -14.256594    -2.453935    -1.910897    23.677053    6.431848    -2.374897    2.774412    -0.040398    -0.313544    -92.366173    -4.243141    -0.120126    -1.198568    7.716647    5.372817    1.860222    -1.102049    2.972951    -1.480379    -5.014320    37.450161    0.000000    0.000000    0.000000    4.302745    5.531684    7.680552    1.555390    4.817420    -0.647127    1.009784    -9.514504    -50.688671    0.000000    0.000000    0.000000    
-0.008490    0.837252    0.099843    2.215535    1.626596    -94.123550    -1.536345    -6.676805    -1.998096    1.857696    0.994978    -0.652518    -2.353964    -8.654884    -0.309026    -0.731066    0.752571    -0.351407    16.091959    -0.998991    -8.162855    -25.300108    1.031064    -2.119380    -3.601275    5.707897    6.192347    92.263054    -5.365322    -5.795720    -14.251743    -2.500342    -1.892758    23.570122    6.289548    -2.429417    3.058868    0.096665    -0.175630    -92.644745    -4.129607    0.006120    -1.203212    7.724850    5.368291    1.859636    -1.104467    2.949829    -1.543181    -5.075577    37.430408    0.000000    0.000000    0.000000    4.294272    5.517116    7.698584    1.561422    4.840506    -0.652750    1.017372    -9.514791    -50.684078    0.000000    0.000000    0.000000    
-0.008549    0.837261    0.099817    2.196175    1.619902    -94.121643    -1.537254    -6.665035    -2.008919    1.840839    0.972625    -0.655565    -2.456357    -8.682107    -0.340199    -0.769457    0.788601    -0.383361    16.090887    -0.999287    -8.168282    -25.320574    1.013730    -2.150188    -3.625406    5.716241    6.186608    92.296410    -5.248641    -5.805959    -14.244268    -2.535154    -1.875774    23.937822    6.865941    -2.307182    2.389327    -0.219924    -0.495483    -92.351189    -4.372807    -0.299534    -1.205738    7.744447    5.377806    1.854237    -1.101715    2.959770    -1.447289    -4.933420    37.488953    0.000000    0.000000    0.000000    4.281683    5.525093    7.696984    1.578768    4.865434    -0.673468    1.018672    -9.546590    -50.652206    0.000000    0.000000    0.000000    
-0.008608    0.837260    0.099807    2.183084    1.615216    -94.123047    -1.532357    -6.665591    -2.016210    1.818536    0.955005    -0.657692    -2.525793    -8.705941    -0.367815    -0.821705    0.840366    -0.407737    16.089893    -1.015332    -8.178812    -25.348423    1.035332    -2.185420    -3.622670    5.743824    6.206706    92.321487    -5.244514    -5.832963    -14.221984    -2.535949    -1.861860    23.942795    6.841389    -2.301506    2.408518    -0.186401    -0.463239    -92.414375    -4.350182    -0.268569    -1.207781    7.754083    5.374526    1.849469    -1.090918    2.959861    -1.440535    -4.967221    37.493992    0.000000    0.000000    0.000000    4.276276    5.513196    7.668543    1.582581    4.911412    -0.649971    1.025910    -9.521006    -50.645794    0.000000    0.000000    0.000000    
-0.008653    0.837268    0.099771    2.159998    1.616971    -94.115181    -1.537396    -6.660529    -2.027809    1.816007    0.939665    -0.661278    -2.599976    -8.695564    -0.399497    -0.844821    0.892802    -0.441085    16.087173    -1.021217    -8.195510    -25.405436    1.114625    -2.256914    -3.579135    5.739598    6.269384    92.397308    -5.230181    -5.825171    -14.224531    -2.536020    -1.849219    23.991468    6.913035    -2.275067    2.334257    -0.412619    -0.418539    -92.366333    -3.799805    -0.482726    -1.198198    7.776932    5.370910    1.841393    -1.085154    2.950196    -1.407601    -4.890425    37.530556    0.000000    0.000000    0.000000    4.278398    5.528971    7.662129    1.588363    4.926927    -0.662995    1.022460    -9.523699    -50.645798    0.000000    0.000000    0.000000    
-0.008696    0.837272    0.099741    2.145739    1.617377    -94.110558    -1.531742    -6.681229    -2.036660    1.795606    0.951557    -0.664240    -2.752798    -8.756967    -0.362041    -0.587106    1.046934    -0.443966    16.076000    -1.023719    -8.203571    -25.410954    1.129879    -2.306895    -3.539224    5.705980    6.237227    92.360611    -5.375820    -5.787060    -14.218382    -2.538211    -1.845970    24.023136    6.965408    -2.234626    2.340534    -0.497360    -0.399728    -92.427612    -3.733612    -0.568316    -1.205389    7.777688    5.397556    1.854658    -1.063810    3.005783    -1.456622    -4.955592    37.421425    0.000000    0.000000    0.000000    4.274151    5.530579    7.668722    1.600956    4.950795    -0.656666    1.015654    -9.545739    -50.642220    0.000000    0.000000    0.000000    
-0.008754    0.837253    0.099718    2.125441    1.615548    -94.107452    -1.537587    -6.700950    -2.052845    1.783988    0.958285    -0.669426    -2.687799    -8.612140    -0.457737    -0.875657    0.957226    -0.503478    16.063604    -1.024165    -8.216707    -25.428806    1.183974    -2.355700    -3.529053    5.672372    6.211251    92.597610    -5.201838    -5.744926    -14.209423    -2.520720    -1.831709    24.039829    6.978850    -2.181225    2.356186    -0.509038    -0.416860    -92.381912    -3.764822    -0.578783    -1.205916    7.783062    5.399185    1.855221    -1.034257    2.933333    -1.505383    -5.047355    37.444744    0.000000    0.000000    0.000000    4.266702    5.543028    7.674847    1.615062    4.967985    -0.667825    1.011072    -9.544486    -50.637955    0.000000    0.000000    0.000000    
-0.008778    0.837257    0.099688    2.108251    1.617278    -94.104004    -1.543304    -6.725387    -2.055567    1.779617    0.979517    -0.670422    -2.784076    -8.606199    -0.442971    -0.694318    1.065316    -0.518043    16.042267    -1.032226    -8.230326    -25.428812    1.228590    -2.413500    -3.543432    5.740165    6.196350    92.479843    -5.309785    -5.816016    -14.210567    -2.531081    -1.831663    23.774200    6.598901    -2.257087    2.966087    -0.231828    -0.150667    -92.794022    -3.584078    -0.315447    -1.201271    7.795904    5.403850    1.851296    -1.024402    2.929607    -1.492904    -5.039833    37.438625    0.000000    0.000000    0.000000    4.267478    5.555085    7.660661    1.618436    4.978597    -0.649786    0.995647    -9.549730    -50.651207    0.000000    0.000000    0.000000    
-0.008826    0.837236    0.099653    2.093059    1.621027    -94.100563    -1.555933    -6.771414    -2.069134    1.784989    1.026589    -0.675227    -2.794057    -8.533271    -0.475039    -0.718234    1.086797    -0.550193    16.024420    -1.011208    -8.221031    -25.423820    1.242072    -2.495390    -3.544118    5.807534    6.200883    92.674881    -5.203318    -5.876989    -14.205154    -2.522075    -1.813277    24.088995    7.113544    -2.096397    2.375744    -0.511658    -0.469161    -92.447624    -3.752601    -0.582190    -1.196495    7.805187    5.404112    1.855348    -1.007920    2.913042    -1.422619    -4.972517    37.502941    0.000000    0.000000    0.000000    4.280535    5.563161    7.640239    1.608732    4.996625    -0.645245    1.001433    -9.548415    -50.646301    0.000000    0.000000    0.000000    
-0.008847    0.837227    0.099626    2.077772    1.621832    -94.097420    -1.570525    -6.812195    -2.076857    1.775825    1.070372    -0.677958    -2.766345    -8.463946    -0.496679    -0.724353    1.117645    -0.571731    16.038450    -1.034130    -8.241839    -25.443115    1.286240    -2.528330    -3.527017    5.786570    6.176115    92.680794    -5.322287    -5.851304    -14.209831    -2.514068    -1.810772    24.129219    7.159698    -2.045086    2.393465    -0.377767    -0.545195    -92.314224    -4.356297    -0.454518    -1.195069    7.818924    5.401896    1.855079    -1.002971    2.915325    -1.525921    -5.108090    37.421707    0.000000    0.000000    0.000000    4.282388    5.577084    7.652184    1.611479    5.002282    -0.664312    0.990204    -9.532994    -50.650486    0.000000    0.000000    0.000000    
-0.008868    0.837219    0.099589    2.060654    1.628046    -94.099777    -1.583880    -6.852542    -2.076611    1.783211    1.118924    -0.678199    -2.751630    -8.383238    -0.512472    -0.711308    1.133043    -0.590983    16.027325    -1.067445    -8.255897    -25.460163    1.396934    -2.574460    -3.500869    5.698106    6.166500    92.563980    -5.248432    -5.768253    -14.200994    -2.515455    -1.813971    24.141230    7.233360    -1.995029    2.350086    -0.595828    -0.490607    -92.576538    -3.562998    -0.665975    -1.187690    7.836619    5.392531    1.853751    -0.998253    2.924574    -1.474559    -5.038968    37.447994    0.000000    0.000000    0.000000    4.291517    5.593369    7.647678    1.607812    5.008703    -0.640443    0.991880    -9.550001    -50.662563    0.000000    0.000000    0.000000    
